# xmcd
#
# Track frame offsets: 
#        150
#        42997
#        87558
#        113957
#        154174
#        178849
#        211047
#        235687
#        272137
#        307762
#
# Disc length: 4653 seconds
#
# Revision: 1
# Processed by: cddbd v1.5.2PL0 Copyright (c) Steve Scherf et al.
# Submitted via: ExactAudioCopyFreeDBPlugin 1.0
#
DISCID=80122b0a
DTITLE=Andreas Fröhlich - Eragon [CD08)
DYEAR=2005
DGENRE=Hörbuch
TTITLE0=Die Hexe und die Werkatze (Teil 3)
TTITLE1=Die Hexe und die Werkatze (Teil 4)
TTITLE2=Vom Lesen und Pläneschmieden
TTITLE3=Diebe in der Burg (Teil 1)
TTITLE4=Diebe in der Burg (Teil 2)
TTITLE5=Diebe in der Burg (Teil 3)
TTITLE6=Ein verhängnisvoller Fehler (Teil 1)
TTITLE7=Ein verhängnisvoller Fehler (Teil 2)
TTITLE8=Ein verhängnisvoller Fehler (Teil 3)
TTITLE9=Ein verhängnisvoller Fehler (Teil 4)
EXTD=
EXTT0=
EXTT1=
EXTT2=
EXTT3=
EXTT4=
EXTT5=
EXTT6=
EXTT7=
EXTT8=
EXTT9=
PLAYORDER=
